<?xml version="1.0" standalone="no"?><!DOCTYPE svg PUBLIC "-//W3C//DTD SVG 1.1//EN" "http://www.w3.org/Graphics/SVG/1.1/DTD/svg11.dtd"><svg t="1612756017058" class="icon" viewBox="0 0 1024 1024" version="1.1" xmlns="http://www.w3.org/2000/svg" p-id="4670" data-spm-anchor-id="a313x.7781069.0.i6" xmlns:xlink="http://www.w3.org/1999/xlink" width="200" height="200"><defs><style type="text/css"></style></defs><path d="M839.68 384h-43.52v-97.28C796.16 135.68 673.28 10.24 519.68 10.24S245.76 135.68 245.76 286.72V384H184.32c-46.08 0-84.48 38.4-84.48 84.48v460.8c0 46.08 38.4 84.48 84.48 84.48h657.92c46.08 0 84.48-38.4 84.48-84.48v-460.8c-2.56-46.08-40.96-84.48-87.04-84.48z m-529.92-97.28c0-115.2 94.72-212.48 212.48-212.48s212.48 94.72 212.48 212.48V384H309.76v-97.28z m550.4 642.56c0 10.24-7.68 20.48-20.48 20.48H184.32c-10.24 0-20.48-7.68-20.48-20.48v-460.8c0-10.24 7.68-20.48 20.48-20.48h657.92c10.24 0 20.48 7.68 20.48 20.48v460.8z" p-id="4671" data-spm-anchor-id="a313x.7781069.0.i7" class="" fill="#bfbfbf"></path><path d="M512 814.08c-20.48 0-38.4-17.92-38.4-38.4v-156.16c0-20.48 17.92-38.4 38.4-38.4s38.4 17.92 38.4 38.4v156.16c0 20.48-17.92 38.4-38.4 38.4z" p-id="4672" data-spm-anchor-id="a313x.7781069.0.i5" class="" fill="#1296db"></path></svg>