<?xml version="1.0" standalone="no"?><!DOCTYPE svg PUBLIC "-//W3C//DTD SVG 1.1//EN" "http://www.w3.org/Graphics/SVG/1.1/DTD/svg11.dtd"><svg t="1614308248767" class="icon" viewBox="0 0 1024 1024" version="1.1" xmlns="http://www.w3.org/2000/svg" p-id="2139" xmlns:xlink="http://www.w3.org/1999/xlink" width="200" height="200"><defs><style type="text/css"></style></defs><path d="M512.948148 896c-1.422222 0-2.844444-0.18963-4.266667-0.474074-3.223704-0.663704-80.497778-16.877037-158.53037-71.86963-46.174815-32.521481-83.057778-71.964444-109.605926-117.191111-33.185185-56.414815-49.967407-121.931852-49.967407-194.465185V267.188148c0-11.757037 9.576296-21.333333 21.333333-21.333333 157.202963 0 285.013333-111.407407 286.245926-112.545185 7.964444-7.016296 19.911111-7.111111 27.97037-0.18963 0.284444 0.284444 33.943704 28.823704 86.376297 56.794074 47.691852 25.505185 121.362963 55.940741 201.386666 55.940741 11.757037 0 21.333333 9.576296 21.333334 21.333333v244.717037c-0.948148 72.059259-18.299259 137.197037-51.674074 193.611852-26.642963 45.131852-63.431111 84.574815-109.321482 117.285926-77.463704 55.277037-153.78963 71.964444-156.918518 72.628148-1.422222 0.379259-2.939259 0.568889-4.361482 0.568889zM233.244444 287.952593V512c0 117.57037 47.597037 210.773333 141.463704 276.859259 60.681481 42.761481 121.552593 59.828148 138.145185 63.905185 16.592593-4.266667 77.653333-22.091852 137.955556-65.517037 92.539259-66.465185 140.231111-159.288889 141.842963-275.721481V287.952593c-32.995556-1.896296-66.939259-8.154074-101.357037-18.773334-33.185185-10.145185-66.74963-24.367407-99.84-42.097778-36.124444-19.342222-63.525926-38.684444-78.980741-50.346666-15.17037 11.757037-42.002963 31.004444-77.558518 50.346666-32.711111 17.825185-66.180741 31.952593-99.365926 42.192593-34.512593 10.524444-68.835556 16.782222-102.305186 18.678519z" p-id="2140"></path><path d="M479.762963 645.30963c-10.145185 0-19.721481-4.456296-26.263704-12.136297L340.574815 500.906667c-7.68-8.912593-6.637037-22.471111 2.37037-30.056297 8.912593-7.68 22.471111-6.637037 30.056296 2.370371l106.571852 124.776296 198.162963-234.002963c7.585185-9.007407 21.048889-10.145185 30.056297-2.465185 9.007407 7.585185 10.145185 21.048889 2.465185 30.056296L505.647407 633.362963c-6.447407 7.585185-15.834074 11.946667-25.884444 11.946667z" p-id="2141"></path></svg>